<svg width="57" height="10" viewBox="0 0 57 10" fill="none" xmlns="http://www.w3.org/2000/svg">
<path d="M3.39572 5.328L2.51972 6.48V9H0.94772V0.624H2.51972V4.392H2.59172L3.56372 3L5.32772 0.624H7.10372L4.47572 4.152L7.22372 9H5.44772L3.39572 5.328ZM17.875 9L17.287 6.876H14.803L14.227 9H12.643L14.995 0.624H17.179L19.543 9H17.875ZM16.099 2.172H16.003L15.079 5.592H17.023L16.099 2.172ZM27.2183 0.624V5.844C27.2183 6.156 27.2263 6.436 27.2423 6.684C27.2663 6.932 27.3183 7.144 27.3983 7.32C27.4863 7.488 27.6143 7.62 27.7823 7.716C27.9583 7.812 28.1983 7.86 28.5023 7.86C28.8063 7.86 29.0423 7.812 29.2103 7.716C29.3863 7.62 29.5143 7.488 29.5943 7.32C29.6823 7.144 29.7343 6.932 29.7503 6.684C29.7743 6.436 29.7863 6.156 29.7863 5.844V0.624H31.3583V5.604C31.3583 6.196 31.3223 6.712 31.2503 7.152C31.1783 7.592 31.0383 7.96 30.8303 8.256C30.6223 8.552 30.3303 8.776 29.9543 8.928C29.5863 9.072 29.1023 9.144 28.5023 9.144C27.9023 9.144 27.4143 9.072 27.0383 8.928C26.6703 8.776 26.3823 8.552 26.1743 8.256C25.9663 7.96 25.8263 7.592 25.7543 7.152C25.6823 6.712 25.6463 6.196 25.6463 5.604V0.624H27.2183ZM40.8217 9.144C40.1017 9.144 39.4857 9.02 38.9737 8.772C38.4697 8.524 38.0577 8.196 37.7377 7.788L38.6857 6.804C38.9977 7.164 39.3337 7.432 39.6937 7.608C40.0617 7.776 40.4537 7.86 40.8697 7.86C41.3497 7.86 41.7177 7.752 41.9737 7.536C42.2297 7.32 42.3577 7.008 42.3577 6.6C42.3577 6.264 42.2617 6.012 42.0697 5.844C41.8777 5.668 41.5537 5.544 41.0977 5.472L40.2097 5.328C39.4337 5.192 38.8817 4.912 38.5537 4.488C38.2257 4.056 38.0617 3.548 38.0617 2.964C38.0617 2.164 38.3217 1.552 38.8417 1.128C39.3617 0.696 40.0817 0.48 41.0017 0.48C41.6577 0.48 42.2217 0.584 42.6937 0.792C43.1737 1 43.5577 1.284 43.8457 1.644L42.9217 2.628C42.6977 2.364 42.4297 2.156 42.1177 2.004C41.8057 1.844 41.4377 1.764 41.0137 1.764C40.1017 1.764 39.6457 2.14 39.6457 2.892C39.6457 3.212 39.7417 3.456 39.9337 3.624C40.1257 3.792 40.4537 3.916 40.9177 3.996L41.7937 4.152C42.5217 4.288 43.0617 4.556 43.4137 4.956C43.7657 5.356 43.9417 5.868 43.9417 6.492C43.9417 6.884 43.8737 7.244 43.7377 7.572C43.6017 7.892 43.4017 8.172 43.1377 8.412C42.8737 8.644 42.5457 8.824 42.1537 8.952C41.7697 9.08 41.3257 9.144 40.8217 9.144ZM50.729 9V0.624H56.021V1.92H52.301V4.104H55.889V5.4H52.301V7.704H56.021V9H50.729Z" fill="#1B153B" fill-opacity="0.82"/>
</svg>
