<svg xmlns="http://www.w3.org/2000/svg" viewBox="0 0 127 36" version="1.1" shape-rendering="crispEdges" ><path d="" stroke="yellow" fill="#080404" fill-rule="evenodd"/><path d="M 5 17 C 5 27.980, 5.032 28.135, 7.250 27.820 C 9.039 27.565, 9.520 26.824, 9.600 24.200 C 9.773 18.486, 11.560 18.190, 14.683 23.360 C 16.930 27.080, 18.032 28, 20.243 28 C 21.759 28, 23 27.795, 23 27.544 C 23 27.294, 21.211 24.535, 19.025 21.414 L 15.050 15.739 16.978 13.031 C 18.039 11.541, 19.603 9.745, 20.453 9.039 C 22.692 7.181, 22.355 6, 19.584 6 C 17.920 6, 16.153 7.323, 13.906 10.250 C 12.112 12.588, 10.358 14.844, 10.008 15.264 C 9.659 15.684, 9.401 13.884, 9.436 11.264 C 9.492 7.062, 9.235 6.462, 7.250 6.180 C 5.032 5.865, 5 6.020, 5 17 M 33.138 15.750 C 31.330 21.113, 29.622 26.063, 29.342 26.750 C 29.014 27.556, 29.737 28, 31.376 28 C 33.638 28, 34.145 27.269, 35.960 21.395 C 37.082 17.762, 38 14.162, 38 13.395 C 38 12.628, 38.450 12, 39 12 C 39.550 12, 40 12.514, 40 13.142 C 40 13.770, 40.919 17.370, 42.042 21.142 C 43.878 27.306, 44.344 28, 46.649 28 C 48.280 28, 49.046 27.545, 48.754 26.750 C 48.501 26.063, 46.840 21.113, 45.064 15.750 C 42.039 6.616, 41.664 6, 39.130 6 C 36.600 6, 36.213 6.630, 33.138 15.750 M 56.341 7.555 C 56.012 8.410, 55.959 12.462, 56.222 16.560 C 56.829 26.020, 58.365 28, 65.098 28 C 71.842 28, 73 26.062, 73 14.777 C 73 6.667, 72.848 6, 71 6 C 69.189 6, 69 6.667, 69 13.066 C 69 20.801, 67.878 24, 65.165 24 C 61.886 24, 61 21.829, 61 13.800 C 61 6.626, 60.837 6, 58.969 6 C 57.851 6, 56.669 6.700, 56.341 7.555 M 85.168 7.595 C 83.381 8.847, 82.956 9.970, 83.195 12.814 C 83.517 16.634, 85.541 18.308, 91.250 19.476 C 94.282 20.096, 94.961 22.694, 92.353 23.695 C 91.446 24.043, 89.323 23.805, 87.634 23.168 C 85.169 22.238, 84.287 22.285, 83.166 23.406 C 81.970 24.601, 82.134 25.041, 84.303 26.463 C 88.200 29.016, 94.795 28.179, 97.298 24.814 C 99.050 22.457, 99.141 21.754, 98.038 19.091 C 97.051 16.709, 95.779 15.771, 92.140 14.744 C 89.325 13.949, 87.500 12.856, 87.500 11.967 C 87.500 10.076, 91.664 9.476, 93.605 11.087 C 94.817 12.093, 95.423 12.001, 96.800 10.603 C 98.401 8.979, 98.387 8.794, 96.559 7.439 C 93.981 5.528, 88.002 5.610, 85.168 7.595 M 108 17 L 108 28 115 28 C 121.333 28, 122 27.810, 122 26 C 122 24.304, 121.333 24, 117.617 24 C 113.735 24, 113.178 23.714, 112.755 21.500 C 112.305 19.142, 112.526 19, 116.639 19 C 120.333 19, 121 18.694, 121 17 C 121 15.343, 120.333 15, 117.117 15 C 114.113 15, 113.118 14.560, 112.725 13.058 C 112.029 10.394, 112.666 10, 117.667 10 C 121.333 10, 122 9.692, 122 8 C 122 6.190, 121.333 6, 115 6 L 108 6 108 17" stroke="none" fill="#040404" fill-rule="evenodd"/></svg>